<svg viewBox="0 0 200 200" xmlns="http://www.w3.org/2000/svg">
  <path fill="#FA4D56" d="M44.5,-76.1C58.4,-69.1,70.7,-58.5,77.8,-45.3C84.9,-32,86.7,-16,85.8,-0.5C84.9,14.9,81.2,29.8,74.4,43.5C67.5,57.2,57.5,69.7,44.6,76.9C31.6,84.2,15.8,86.1,0.1,85.9C-15.6,85.8,-31.2,83.5,-44.2,76.3C-57.2,69.1,-67.6,57.1,-74.7,43.5C-81.8,30,-85.7,15,-86.7,-0.6C-87.8,-16.3,-86.2,-32.5,-79.2,-46.4C-72.3,-60.2,-60.1,-71.6,-46.1,-78.5C-32,-85.4,-16,-87.8,-0.3,-87.2C15.3,-86.6,30.7,-83.2,44.5,-76.1Z" transform="translate(100 100)" />
</svg>