<?xml version="1.0" encoding="UTF-8"?>
<svg version="1.1" xmlns="http://www.w3.org/2000/svg" width="1024" height="1024">
<path d="M0 0 C337.92 0 675.84 0 1024 0 C1024 337.92 1024 675.84 1024 1024 C686.08 1024 348.16 1024 0 1024 C0 686.08 0 348.16 0 0 Z " fill="#CA3637" transform="translate(0,0)"/>
<path d="M0 0 C1.09957031 0.00644531 2.19914063 0.01289063 3.33203125 0.01953125 C19.4059372 0.65495652 35.94295026 6.44815999 50 14 C51.17691406 14.59425781 52.35382813 15.18851562 53.56640625 15.80078125 C62.67929899 20.54347198 69.82166299 26.70664058 77 34 C77.92039062 34.92167969 78.84078125 35.84335937 79.7890625 36.79296875 C85.68039508 42.96017944 90.02811108 49.46393261 94 57 C96.08331189 53.97908108 96.08331189 53.97908108 97.875 50.5 C99.59376481 47.54372453 100.80019774 45.47017942 104 44 C108.85667986 43.17352867 111.79495629 43.15646941 115.9296875 46.05078125 C119.43330989 49.18992912 122.08691513 52.83080227 124.75 56.6875 C125.2658667 57.43080566 125.7817334 58.17411133 126.31323242 58.93994141 C138.04710972 76.14145579 146.80546284 94.50517285 151 115 C151.26554687 116.26328125 151.53109375 117.5265625 151.8046875 118.828125 C153.50316141 127.18621992 154.66716677 135.46736631 155 144 C155.05285156 145.17304688 155.10570312 146.34609375 155.16015625 147.5546875 C156.12447799 188.55932498 141.06596113 227.30500298 113 257 C112.19175781 257.88429688 111.38351562 258.76859375 110.55078125 259.6796875 C86.4430908 285.12068818 50.44463595 298.91908317 15.78979492 300.11035156 C12.25510574 300.16965253 8.72266739 300.18559013 5.1875 300.1875 C4.00607422 300.19974609 2.82464844 300.21199219 1.60742188 300.22460938 C-6.44683923 300.23784926 -14.08486088 299.46780786 -22 298 C-22.80751709 297.85393311 -23.61503418 297.70786621 -24.44702148 297.55737305 C-44.17590331 293.81587752 -61.51934068 287.0652373 -77 274 C-78.010625 273.236875 -79.02125 272.47375 -80.0625 271.6875 C-87.80819973 264.60100875 -93.61682975 255.94887144 -99 247 C-99.99 247.33 -100.98 247.66 -102 248 C-101.67 248.66 -101.34 249.32 -101 250 C-100.60768583 254.70777 -100.52663242 257.07079697 -102.6875 261.3125 C-105.07321923 264.08509262 -106.60159208 265.65644338 -110 267 C-113.65404217 267.20683258 -115.92915729 266.7861606 -118.91015625 264.59765625 C-137.81147175 246.82365579 -149.2635075 218.73862389 -155 194 C-155.18046875 193.24750977 -155.3609375 192.49501953 -155.546875 191.71972656 C-165.40511497 149.20606671 -158.31992605 104.89707784 -135.5078125 67.84375 C-132.108004 62.51502783 -128.20094486 57.71489024 -124 53 C-123.29359375 52.17371094 -122.5871875 51.34742188 -121.859375 50.49609375 C-97.32976265 22.30468675 -62.72906721 3.62347276 -25.29931641 0.15234375 C-16.88046424 -0.40545661 -8.42852736 -0.1806705 0 0 Z " fill="#CB3839" transform="translate(514,276)"/>
<path d="M0 0 C1.09957031 0.00644531 2.19914063 0.01289063 3.33203125 0.01953125 C19.4059372 0.65495652 35.94295026 6.44815999 50 14 C51.17691406 14.59425781 52.35382813 15.18851562 53.56640625 15.80078125 C62.68416505 20.54600446 69.80880534 26.71446366 77 34 C77.90878906 34.89847656 78.81757812 35.79695313 79.75390625 36.72265625 C90.92343469 48.30144985 96.75502973 62.05697035 102 77 C102.23315918 77.66225586 102.46631836 78.32451172 102.70654297 79.00683594 C113.02948089 108.87585101 117.40384484 139.85181021 111 171 C110.86609863 171.66870117 110.73219727 172.33740234 110.59423828 173.02636719 C108.39344568 183.59550694 104.1420655 192.61881465 99 202 C98.51660156 202.91523438 98.03320312 203.83046875 97.53515625 204.7734375 C84.10192078 228.83645061 61.29385468 243.86457835 35.32226562 251.35839844 C16.5560649 256.54317299 -2.49688954 256.09666986 -21.52783203 252.46630859 C-24.17947305 251.96614719 -26.83674421 251.50806817 -29.49609375 251.05078125 C-31.3102539 250.72333178 -33.12406692 250.39395234 -34.9375 250.0625 C-35.78441406 249.9171582 -36.63132812 249.77181641 -37.50390625 249.62207031 C-42.12437216 248.73221674 -45.09811033 247.99293957 -48 244 C-49.45371006 239.63886982 -49.61627299 235.55316989 -49 231 C-47.0625 227.875 -47.0625 227.875 -44 226 C-37.54205281 225.20623485 -30.93236523 226.42228797 -24.5625 227.4375 C-23.21768555 227.63956055 -23.21768555 227.63956055 -21.84570312 227.84570312 C-15.28000613 228.85999693 -15.28000613 228.85999693 -13 230 C13.66491567 233.61334663 36.33803292 229.48919967 58.3125 213.5625 C72.95040764 202.11342789 81.57114427 188.62568494 87 171 C87.3403125 169.9171875 87.680625 168.834375 88.03125 167.71875 C96.7972191 134.27820121 85.47887284 92.19604677 68.83984375 62.85546875 C55.31488822 41.86450805 34.6493933 31.82805823 11 26 C10.42209717 25.82114258 9.84419434 25.64228516 9.2487793 25.45800781 C5.91240736 24.77849052 2.57577899 24.77660206 -0.81640625 24.7265625 C-1.96357117 24.70790634 -1.96357117 24.70790634 -3.13391113 24.68887329 C-19.13008339 24.47893011 -33.80318142 24.42080513 -49 30 C-50.05316406 30.2990625 -51.10632813 30.598125 -52.19140625 30.90625 C-78.52040742 38.47890546 -103.33564615 59.5420173 -117 83 C-117.40798828 83.68755371 -117.81597656 84.37510742 -118.23632812 85.08349609 C-127.35029953 100.66621397 -133.06694829 116.99700038 -135 135 C-135.08467529 135.66773438 -135.16935059 136.33546875 -135.2565918 137.0234375 C-137.68763411 156.83481162 -135.26101714 175.86548579 -130 195 C-129.71382813 196.10085938 -129.42765625 197.20171875 -129.1328125 198.3359375 C-124.57724371 214.66341856 -115.48763286 228.40253032 -105.80859375 242.1015625 C-102.00961475 247.67339836 -99.73300612 251.20430555 -101 258 C-103.20502936 262.32839097 -105.43096248 265.19363633 -110 267 C-113.65404217 267.20683258 -115.92915729 266.7861606 -118.91015625 264.59765625 C-137.81147175 246.82365579 -149.2635075 218.73862389 -155 194 C-155.18046875 193.24750977 -155.3609375 192.49501953 -155.546875 191.71972656 C-165.40511497 149.20606671 -158.31992605 104.89707784 -135.5078125 67.84375 C-132.108004 62.51502783 -128.20094486 57.71489024 -124 53 C-123.29359375 52.17371094 -122.5871875 51.34742188 -121.859375 50.49609375 C-97.32976265 22.30468675 -62.72906721 3.62347276 -25.29931641 0.15234375 C-16.88046424 -0.40545661 -8.42852736 -0.1806705 0 0 Z " fill="#FCF7F7" transform="translate(514,276)"/>
<path d="M0 0 C0.73863281 -0.03996094 1.47726562 -0.07992188 2.23828125 -0.12109375 C8.82861953 1.38196586 12.81608706 7.88044501 16.4375 13.125 C17.21130005 14.2399585 17.21130005 14.2399585 18.00073242 15.37744141 C29.73460972 32.57895579 38.49296284 50.94267285 42.6875 71.4375 C42.95304687 72.70078125 43.21859375 73.9640625 43.4921875 75.265625 C45.19066141 83.62371992 46.35466677 91.90486631 46.6875 100.4375 C46.76677734 102.19707031 46.76677734 102.19707031 46.84765625 103.9921875 C47.81197799 144.99682498 32.75346113 183.74250298 4.6875 213.4375 C3.87925781 214.32179688 3.07101562 215.20609375 2.23828125 216.1171875 C-21.8694092 241.55818818 -57.86786405 255.35658317 -92.52270508 256.54785156 C-96.05739426 256.60715253 -99.58983261 256.62309013 -103.125 256.625 C-104.30642578 256.63724609 -105.48785156 256.64949219 -106.70507812 256.66210938 C-114.75933923 256.67534926 -122.39736088 255.90530786 -130.3125 254.4375 C-131.12001709 254.29143311 -131.92753418 254.14536621 -132.75952148 253.99487305 C-152.48840331 250.25337752 -169.83184068 243.5027373 -185.3125 230.4375 C-186.323125 229.674375 -187.33375 228.91125 -188.375 228.125 C-209.33061549 208.95284114 -219.11724749 180.08499317 -224.5625 152.9375 C-224.72548584 152.12571289 -224.88847168 151.31392578 -225.05639648 150.47753906 C-228.98501604 130.08464095 -229.37078122 107.6507104 -224.3125 87.4375 C-224.14621094 86.77041016 -223.97992188 86.10332031 -223.80859375 85.41601562 C-215.79205519 54.62656937 -196.45533103 30.63013748 -169.3125 14.4375 C-163.13140705 10.91311415 -156.85918607 8.46082607 -150.07421875 6.33203125 C-147.32338761 5.48096077 -147.32338761 5.48096077 -144.76953125 4.38671875 C-139.75885826 2.45095796 -134.8186893 2.2439134 -129.49609375 2.1640625 C-128.73478149 2.15157974 -127.97346924 2.13909698 -127.18908691 2.12623596 C-112.37755011 1.93108573 -97.87314214 2.04311529 -83.25 4.625 C-82.10523193 4.82109863 -80.96046387 5.01719727 -79.78100586 5.21923828 C-73.74419045 6.42281421 -70.09062376 7.47312663 -66.3125 12.4375 C-65.9825 12.7675 -65.6525 13.0975 -65.3125 13.4375 C-64.78103384 18.63018572 -64.45928493 23.01547489 -67.1875 27.5625 C-70.37578498 30.37569263 -72.14203283 30.57462345 -76.3125 30.5625 C-77.199375 30.56507813 -78.08625 30.56765625 -79 30.5703125 C-81.3125 30.4375 -81.3125 30.4375 -83.3125 29.4375 C-85.55703583 29.06916591 -87.80839679 28.74185149 -90.0625 28.4375 C-97.03939642 27.48745453 -97.03939642 27.48745453 -100.14746094 26.91894531 C-124.68658011 23.1862129 -147.43434915 27.23517237 -167.5625 41.6875 C-177.60659524 49.64078358 -186.07615667 58.15829145 -192.3125 69.4375 C-192.98345703 70.56478516 -192.98345703 70.56478516 -193.66796875 71.71484375 C-206.84816762 95.43920171 -206.5758808 129.36268216 -199.41015625 154.96484375 C-199.04792969 156.11082031 -198.68570312 157.25679687 -198.3125 158.4375 C-198.05194824 159.26266113 -197.79139648 160.08782227 -197.52294922 160.93798828 C-189.81897409 184.99257656 -179.23260912 209.5456349 -155.875 222.1875 C-133.59164461 232.58319064 -103.35575349 237.58448067 -79.3125 231.4375 C-78.30960938 231.25445313 -77.30671875 231.07140625 -76.2734375 230.8828125 C-45.71680177 225.19295619 -17.24649638 207.81634477 0.55859375 182.13476562 C16.49935182 158.16847019 23.74907277 132.25784263 22.76123047 103.59814453 C22.69362099 101.61687341 22.65959026 99.63453062 22.62890625 97.65234375 C21.60402205 69.11087168 9.41680758 43.11986393 -8.11083984 21.12231445 C-11.20679538 16.78156086 -12.19153554 12.76466716 -11.3125 7.4375 C-8.43746632 2.87710175 -5.50343747 0.16158625 0 0 Z " fill="#FCF7F7" transform="translate(622.3125,319.5625)"/>
<path d="M0 0 C1.04736328 -0.02900391 2.09472656 -0.05800781 3.17382812 -0.08789062 C13.55944256 -0.17180174 21.40668593 2.78746357 29.4375 9.3125 C30.4275 10.7975 30.4275 10.7975 31.4375 12.3125 C31.49808594 11.67441406 31.55867187 11.03632812 31.62109375 10.37890625 C31.74677734 9.13947266 31.74677734 9.13947266 31.875 7.875 C31.99681641 6.63943359 31.99681641 6.63943359 32.12109375 5.37890625 C32.4375 3.3125 32.4375 3.3125 33.4375 2.3125 C35.13308726 2.21317847 36.83275747 2.18169993 38.53125 2.1796875 C39.56121094 2.17839844 40.59117187 2.17710937 41.65234375 2.17578125 C43.27849609 2.18158203 43.27849609 2.18158203 44.9375 2.1875 C46.02160156 2.18363281 47.10570312 2.17976562 48.22265625 2.17578125 C49.25261719 2.17707031 50.28257812 2.17835938 51.34375 2.1796875 C52.77170898 2.18137939 52.77170898 2.18137939 54.22851562 2.18310547 C56.4375 2.3125 56.4375 2.3125 57.4375 3.3125 C57.53812747 6.32063486 57.5736474 9.30585029 57.56689453 12.31445312 C57.56952301 13.73140724 57.56952301 13.73140724 57.57220459 15.17698669 C57.5766248 18.3159262 57.57368452 21.45480987 57.5703125 24.59375 C57.57098549 26.76468924 57.57195547 28.9356284 57.57321167 31.10656738 C57.57468887 35.66301183 57.57253337 40.21943672 57.56787109 44.77587891 C57.5621738 50.63076586 57.56545268 56.48560698 57.57144356 62.34049225 C57.57504857 66.82530058 57.57391086 71.31009796 57.57131577 75.79490662 C57.57064633 77.95438136 57.5714755 80.11385709 57.57379532 82.27333069 C57.57632086 85.28576308 57.57248264 88.29812013 57.56689453 91.31054688 C57.56891876 92.21240219 57.57094299 93.11425751 57.57302856 94.04344177 C57.55176231 100.19823769 57.55176231 100.19823769 56.4375 101.3125 C54.66890807 101.41196453 52.89638549 101.44330217 51.125 101.4453125 C50.04992187 101.44660156 48.97484375 101.44789063 47.8671875 101.44921875 C46.73539063 101.44535156 45.60359375 101.44148437 44.4375 101.4375 C43.30570313 101.44136719 42.17390625 101.44523438 41.0078125 101.44921875 C39.93273437 101.44792969 38.85765625 101.44664062 37.75 101.4453125 C36.75613281 101.44418457 35.76226563 101.44305664 34.73828125 101.44189453 C32.4375 101.3125 32.4375 101.3125 31.4375 100.3125 C30.98290142 97.65786879 30.73506762 94.99060862 30.4375 92.3125 C29.93863281 92.77140625 29.43976563 93.2303125 28.92578125 93.703125 C19.19529648 102.01858416 8.18033576 104.31694622 -4.34765625 103.75390625 C-17.36623701 102.68807489 -28.38230381 95.93451025 -37.3125 86.6875 C-46.9834263 74.82605063 -50.2372512 61.35945183 -49.5625 46.3125 C-49.54445313 45.56355469 -49.52640625 44.81460938 -49.5078125 44.04296875 C-48.75488313 31.7525041 -41.73261345 20.02174371 -33 11.625 C-23.27143242 3.56254537 -12.41699672 0.11173062 0 0 Z " fill="#FCF7F7" transform="translate(660.5625,643.6875)"/>
<path d="M0 0 C0.83144531 0.32871094 1.66289062 0.65742187 2.51953125 0.99609375 C13.66003708 5.94172537 21.35659582 14.35686903 27 25 C27.43441406 25.78246094 27.86882812 26.56492187 28.31640625 27.37109375 C31.25292855 33.76595938 31.378156 40.14114607 31.4375 47.0625 C31.44773193 47.98458252 31.45796387 48.90666504 31.46850586 49.85668945 C31.30308318 62.84410468 26.26472856 75.73527144 17 85 C4.34064873 95.76044858 -9.42009412 101.01724387 -26 100 C-40.28467818 98.4272425 -51.92827198 93.29792297 -61.83984375 82.7578125 C-65.39287511 78.22175438 -67.78336259 73.29446842 -70 68 C-70.3609375 67.18144531 -70.721875 66.36289062 -71.09375 65.51953125 C-75.15225634 54.23618387 -74.45062423 37.26980113 -69.84765625 26.23828125 C-63.05380989 12.74468613 -52.21767517 3.05920923 -38 -2 C-26.30868662 -4.68789797 -11.10990459 -4.65899225 0 0 Z " fill="#FCF7F7" transform="translate(370,647)"/>
<path d="M0 0 C4.31248609 -0.02886537 8.62494762 -0.04675255 12.9375 -0.0625 C14.16919922 -0.07087891 15.40089844 -0.07925781 16.66992188 -0.08789062 C17.83974609 -0.09111328 19.00957031 -0.09433594 20.21484375 -0.09765625 C21.84087524 -0.10551147 21.84087524 -0.10551147 23.49975586 -0.11352539 C26 0 26 0 27 1 C27.1241622 3.26920225 27.17803748 5.5422645 27.20532227 7.81469727 C27.21522186 8.52685394 27.22512146 9.23901062 27.23532104 9.9727478 C27.26702212 12.33726628 27.29172724 14.70180489 27.31640625 17.06640625 C27.33696836 18.70166052 27.35796463 20.33690938 27.37937927 21.97215271 C27.43467672 26.28428786 27.48405201 30.59647158 27.53222656 34.90869141 C27.58238572 39.30570824 27.63810087 43.7026542 27.69335938 48.09960938 C27.80103473 56.73301307 27.90245871 65.3664759 28 74 C30.52516805 71.50434749 33.04429373 69.00267549 35.5625 66.5 C36.26697266 65.80390625 36.97144531 65.1078125 37.69726562 64.390625 C43.29971438 58.81399398 48.6118529 53.06412572 53.4855957 46.83666992 C57.07024026 42.6248322 60.25239932 38.99378424 65.97412109 38.12353516 C70.3969129 37.79093493 74.76852052 38.03401497 79.1875 38.3125 C80.72703646 38.367802 82.26676629 38.41797014 83.80664062 38.46289062 C87.54184625 38.58287115 91.2696503 38.77189771 95 39 C95.72241211 40.74487305 95.72241211 40.74487305 96 43 C94.58813477 44.99536133 94.58813477 44.99536133 92.44140625 47.08203125 C91.66216797 47.84966797 90.88292969 48.61730469 90.08007812 49.40820312 C89.24927734 50.20162109 88.41847656 50.99503906 87.5625 51.8125 C86.76650391 52.59431641 85.97050781 53.37613281 85.15039062 54.18164062 C80.81065177 58.4152734 76.35882385 62.47720612 71.77075195 66.4387207 C69.33966867 68.58221685 67.0739418 70.86703198 64.8125 73.1875 C61.69701561 76.38351387 58.53332768 79.26998661 55 82 C55.48268416 86.25365414 58.15514896 88.63007115 61 91.5625 C64.63747057 95.41196497 68.12815254 99.29626152 71.4375 103.4375 C75.79225807 108.84772008 80.46284049 113.90763063 85.19921875 118.98046875 C88.05383343 122.0415102 90.80740648 125.18155756 93.53125 128.359375 C94.9296505 129.92141811 96.39741893 131.32970301 97.9375 132.75 C100 135 100 135 100 139 C95.46541204 139.22437063 90.93412305 139.38662457 86.39526367 139.49438477 C84.85562818 139.53934116 83.31637035 139.60053611 81.77807617 139.67895508 C69.05766447 140.31064057 69.05766447 140.31064057 64.07470703 137.13671875 C61.7938821 134.87886615 59.88108571 132.59595886 58 130 C57.21109375 129.08992187 56.4221875 128.17984375 55.609375 127.2421875 C54.99578125 126.46101562 54.3821875 125.67984375 53.75 124.875 C49.58883262 119.6790064 45.264482 114.65061925 40.86816406 109.65380859 C36.41575704 104.56434772 32.1950384 99.30278127 28 94 C27.98969254 94.54901474 27.97938507 95.09802948 27.96876526 95.66368103 C27.86092053 101.35721281 27.74630551 107.05057921 27.62768555 112.74389648 C27.58426577 114.87114007 27.54259607 116.9984201 27.50268555 119.12573242 C27.44515293 122.17638151 27.38141033 125.22684589 27.31640625 128.27734375 C27.29969376 129.23462875 27.28298126 130.19191376 27.26576233 131.1782074 C27.24581711 132.05904495 27.22587189 132.93988251 27.20532227 133.84741211 C27.18977798 134.62684677 27.1742337 135.40628143 27.15821838 136.20933533 C27 138 27 138 26 139 C24.15840977 139.09959621 22.31303033 139.13080411 20.46875 139.1328125 C19.34855469 139.13410156 18.22835937 139.13539063 17.07421875 139.13671875 C15.89472656 139.13285156 14.71523438 139.12898437 13.5 139.125 C11.73076172 139.13080078 11.73076172 139.13080078 9.92578125 139.13671875 C8.24548828 139.13478516 8.24548828 139.13478516 6.53125 139.1328125 C5.49548828 139.13168457 4.45972656 139.13055664 3.39257812 139.12939453 C1 139 1 139 0 138 C-0.09636838 136.21572813 -0.12187453 134.42760347 -0.12025452 132.64073181 C-0.12162918 131.47820389 -0.12300385 130.31567596 -0.12442017 129.11791992 C-0.12082489 127.83111328 -0.11722961 126.54430664 -0.11352539 125.21850586 C-0.11324352 123.85876976 -0.11340125 122.4990335 -0.1139679 121.13929749 C-0.11425587 117.43698222 -0.10835912 113.73469908 -0.10139394 110.03239131 C-0.09516043 106.16731219 -0.0945566 102.30223242 -0.09336853 98.43714905 C-0.09025521 91.11315318 -0.0820418 83.78917216 -0.07201904 76.46518284 C-0.06085794 68.12916552 -0.05534746 59.79314751 -0.05032361 51.45712459 C-0.03985919 34.30474112 -0.02225973 17.15237213 0 0 Z " fill="#FCF7F7" transform="translate(507,606)"/>
<path d="M0 0 C1.10859375 -0.00257813 2.2171875 -0.00515625 3.359375 -0.0078125 C5.07640625 0.00378906 5.07640625 0.00378906 6.828125 0.015625 C7.95734375 0.00789062 9.0865625 0.00015625 10.25 -0.0078125 C20.28358398 0.01541339 28.83131174 1.07281912 37.703125 5.890625 C38.32574219 6.21546875 38.94835937 6.5403125 39.58984375 6.875 C41.09185374 7.66066676 42.58592969 8.46147363 44.078125 9.265625 C43.61799605 14.84380371 42.17666311 18.33804006 39.140625 23.015625 C38.43035156 24.12421875 37.72007812 25.2328125 36.98828125 26.375 C35.68896903 28.34123935 34.38541926 30.30468361 33.078125 32.265625 C28.92790462 31.93797602 26.25226964 30.81299201 22.765625 28.703125 C15.16165103 24.73382751 5.68175108 24.92308958 -2.546875 26.89453125 C-8.47003647 29.47434572 -13.17896171 34.86168026 -16.0859375 40.5390625 C-18.16127021 47.30813835 -18.23875791 55.73778818 -15.75390625 62.39453125 C-10.92876058 70.71759743 -4.95265916 74.25536361 4.078125 77.265625 C11.71899679 78.18305386 17.35942186 76.75848285 24.25390625 73.45703125 C27.21282309 72.20880215 29.90281253 71.67367845 33.078125 71.265625 C36.13825493 74.96126724 38.82206838 78.77572215 41.390625 82.828125 C41.76251953 83.39208984 42.13441406 83.95605469 42.51757812 84.53710938 C43.99932603 86.89631693 45.08355317 88.650071 45.05859375 91.48046875 C41.33260054 98.26444841 30.39478374 100.00095368 23.46484375 102.03125 C7.86667534 105.70140727 -8.05537882 103.30127237 -21.84765625 95.33203125 C-32.39969551 88.23923739 -40.31836128 78.06931861 -43.0859375 65.51171875 C-45.27627694 53.40565347 -45.85494188 39.32102912 -39.921875 28.265625 C-39.26832031 26.98171875 -39.26832031 26.98171875 -38.6015625 25.671875 C-32.00604141 13.70623018 -21.73435572 6.02226838 -9.08154297 1.17822266 C-5.88943069 0.2562542 -3.31182542 0.00751468 0 0 Z " fill="#FCF7F7" transform="translate(450.921875,643.734375)"/>
<path d="M0 0 C5.08378501 3.49778126 8.45401666 7.36204997 10.4375 13.3125 C11.64199334 32.1697318 11.64199334 32.1697318 6.4375 38.3125 C0.72457516 44.6444325 -5.02512207 47.64561687 -13.44921875 48.66015625 C-22.74037816 49.1241194 -29.54532735 46.30015257 -36.4375 40.125 C-41.1543355 34.98442987 -43.70801465 28.72115033 -44 21.75 C-43.49688171 12.81965029 -40.17492969 6.31392489 -33.5625 0.3125 C-23.30843303 -7.09440432 -10.49023527 -6.44891513 0 0 Z " fill="#CC393A" transform="translate(680.5625,673.6875)"/>
<path d="M0 0 C5.83998582 4.24912852 10.2085377 9.62701136 12.22265625 16.6171875 C13.33082383 25.59334488 11.44970946 33.65170493 5.97265625 40.9296875 C-1.1264689 47.86746889 -7.70570447 50.12759013 -17.5390625 50.01953125 C-24.83438596 49.11311591 -30.80110887 45.33181738 -35.33984375 39.6171875 C-40.66595204 32.03103919 -40.51739414 23.54584736 -39.77734375 14.6171875 C-38.1218109 7.58395065 -32.56583204 2.60731049 -26.77734375 -1.3828125 C-17.93093305 -5.04298512 -8.32114321 -4.78973121 0 0 Z " fill="#CB3839" transform="translate(362.77734375,672.3828125)"/>
<path d="M0 0 C5.11585445 3.18998553 8.22467134 6.27996535 10.41796875 11.90625 C11.37745027 17.50154226 10.5232089 22.10496837 7.765625 27.046875 C5.06219702 30.77682201 1.54130599 33.84458138 -2.58203125 35.90625 C-8.12654596 36.3918185 -13.46067521 36.18240824 -18.58203125 33.90625 C-22.4383641 30.26587179 -26.36073992 26.5327241 -26.8203125 21.078125 C-27.06863839 9.62899436 -27.06863839 9.62899436 -22.58203125 4.90625 C-16.21491356 -1.16162978 -8.46177752 -3.58441408 0 0 Z " fill="#FCF7F7" transform="translate(549.58203125,368.09375)"/>
<path d="M0 0 C4.07160513 2.53602834 6.52303816 5.69411449 8.05078125 10.27734375 C8.97044541 17.37854805 8.3536715 22.62531849 3.94921875 28.39453125 C-0.44843548 32.75599079 -5.51951433 34.44708733 -11.63671875 34.71484375 C-16.56128505 34.44125673 -20.08158591 33.17128128 -23.61328125 29.58984375 C-28.62843085 23.88540818 -29.42797365 20.3007534 -29.3515625 12.6171875 C-28.73716771 7.51711422 -26.78795038 4.60152199 -22.94921875 1.27734375 C-15.43427877 -4.15011291 -8.12258767 -3.94205032 0 0 Z " fill="#FBF5F6" transform="translate(491.94921875,451.72265625)"/>
<path d="M0 0 C0.99 0.33 1.98 0.66 3 1 C-0.96 4.96 -4.92 8.92 -9 13 C-9.33 12.01 -9.66 11.02 -10 10 C-6.7 6.7 -3.4 3.4 0 0 Z " fill="#CC3D40" transform="translate(583,667)"/>
<path d="M0 0 C0.33 0 0.66 0 1 0 C1.20496094 0.62648438 1.40992188 1.25296875 1.62109375 1.8984375 C1.89050781 2.71570313 2.15992188 3.53296875 2.4375 4.375 C2.83775391 5.59316406 2.83775391 5.59316406 3.24609375 6.8359375 C3.95179729 9.01031799 3.95179729 9.01031799 5 11 C4.01 12.32 3.02 13.64 2 15 C1.27302439 13.25766175 0.56901756 11.50572655 -0.125 9.75 C-0.51945313 8.77546875 -0.91390625 7.8009375 -1.3203125 6.796875 C-2 4 -2 4 -1.1171875 1.640625 C-0.74851562 1.09921875 -0.37984375 0.5578125 0 0 Z " fill="#CD4345" transform="translate(610,330)"/>
<path d="M0 0 C0.66 0.66 1.32 1.32 2 2 C1.54625 2.433125 1.0925 2.86625 0.625 3.3125 C-1.20024334 5.10798342 -1.20024334 5.10798342 -3 8 C-3.75 6.25 -3.75 6.25 -4 4 C-2.0625 1.75 -2.0625 1.75 0 0 Z " fill="#D15052" transform="translate(565,684)"/>
<path d="M0 0 C0.33 1.32 0.66 2.64 1 4 C-0.65 5.32 -2.3 6.64 -4 8 C-4 4.09161134 -2.49432124 2.88405893 0 0 Z " fill="#D1474C" transform="translate(605,489)"/>
</svg>
